<svg width="27" height="25" viewBox="0 0 27 25" fill="none" xmlns="http://www.w3.org/2000/svg">
<path d="M3.92727 0.627441V2.80926H2.61818C1.16509 2.80926 0 3.78017 0 4.99108V20.2638C0 20.8425 0.275843 21.3974 0.766848 21.8066C1.25785 22.2158 1.9238 22.4456 2.61818 22.4456H10.6036C12.2531 23.7984 14.5178 24.6274 17.0182 24.6274C22.0844 24.6274 26.1818 21.2129 26.1818 16.9911C26.1818 14.9074 25.1869 13.0202 23.5636 11.6456V4.99108C23.5636 4.41242 23.2878 3.85747 22.7968 3.4483C22.3058 3.03913 21.6398 2.80926 20.9455 2.80926H19.6364V0.627441H17.0182V2.80926H6.54545V0.627441M2.61818 4.99108H20.9455V7.1729H2.61818M2.61818 9.35471H20.9455V10.0856C19.7542 9.61653 18.4189 9.35471 17.0182 9.35471C11.952 9.35471 7.85455 12.7693 7.85455 16.9911C7.85455 18.1584 8.16873 19.2711 8.73164 20.2638H2.61818M17.0182 11.7002C20.5265 11.7002 23.3673 14.0674 23.3673 16.9911C23.3673 19.9147 20.5265 22.282 17.0182 22.282C13.5098 22.282 10.6691 19.9147 10.6691 16.9911C10.6691 14.0674 13.5098 11.7002 17.0182 11.7002ZM15.7091 13.7184V17.7438L19.8851 19.7511L20.8669 18.3329L17.6727 16.7947V13.7184H15.7091Z" fill="#0077E4"/>
</svg>